<!DOCTYPE svg PUBLIC "-//W3C//DTD SVG 1.1//EN" "http://www.w3.org/Graphics/SVG/1.1/DTD/svg11.dtd">
<!-- Uploaded to: SVG Repo, www.svgrepo.com, Transformed by: SVG Repo Mixer Tools -->
<svg width="800px" height="800px" viewBox="0 0 16 16" version="1.1" xmlns="http://www.w3.org/2000/svg" xmlns:xlink="http://www.w3.org/1999/xlink" fill="#000000">
<g id="SVGRepo_bgCarrier" stroke-width="0"/>
<g id="SVGRepo_tracerCarrier" stroke-linecap="round" stroke-linejoin="round"/>
<g id="SVGRepo_iconCarrier"> <path fill="#CCC" d="M0 0v16h16v-16h-16zM12.9 8.4h-2.1v5.6h-2.1v-5.6h-1.5v-2h1.5c0 0 0-0.8 0-1.7 0-1.5 0.9-2.7 2.9-2.7 0.8 0 1.4 0.1 1.4 0.1v1.9c0 0-0.6 0-1.3 0s-0.8 0.3-0.8 0.9c0 0.1 0 0.1 0 0.1 0 0.2 0 0.5 0 1.4h2.1l-0.1 2z"/> </g>
</svg>